<svg xmlns="http://www.w3.org/2000/svg" xmlns:svg="http://www.w3.org/2000/svg" id="svg211" width="1582.746" height="1796.032" x="0" y="0" enable-background="new 0 0 2000 2000" version="1.1" viewBox="0 0 1582.746 1796.032" xml:space="preserve"><metadata id="metadata217"/><g id="Guides_to_delete" transform="translate(-208.627,-101.984)"><g id="g208"><polygon id="polygon196" fill="#e34e26" points="1791.373 101.984 1647.093 1718.528 999.615 1898.016 352.732 1718.4 208.627 101.984"/><polygon id="polygon198" fill="#ef662a" points="1523.565 1615.585 1646.918 234.108 1000 234.108 1000 1760.716"/><polygon id="polygon200" fill="#fff" points="1244.048 1031.897 1220.988 1289.041 999.744 1348.857 778.919 1289.128 764.155 1124.017 565.155 1124.017 593.611 1442.302 999.697 1555.086 1406.296 1442.302 1460.806 833.669 738.229 833.669 720.086 630.648 1478.168 630.648 1478.773 630.648 1496.532 432.378 503.468 432.378 556.906 1031.897"/><g id="g206"><polygon id="polygon202" fill="#ebebeb" points="556.906 1031.897 1000 1031.897 1000 833.669 738.229 833.669 720.086 630.648 1000 630.648 1000 432.378 503.468 432.378"/><polygon id="polygon204" fill="#ebebeb" points="778.919 1289.128 764.155 1124.017 565.155 1124.017 593.611 1442.302 999.697 1555.086 1000 1555.001 1000 1348.771 999.744 1348.857"/></g></g></g></svg>